<?xml version="1.0" standalone="no"?>
<!DOCTYPE svg PUBLIC "-//W3C//DTD SVG 20010904//EN"
 "http://www.w3.org/TR/2001/REC-SVG-20010904/DTD/svg10.dtd">
<svg version="1.0" xmlns="http://www.w3.org/2000/svg"
 width="1000.000000pt" height="1000.000000pt" viewBox="0 0 1000.000000 1000.000000"
 preserveAspectRatio="xMidYMid meet">

<g transform="translate(0.000000,1000.000000) scale(0.100000,-0.100000)"
fill="#000000" stroke="none">
<path d="M4610 7942 l0 -980 -277 -5 c-198 -4 -300 -10 -353 -21 -373 -79
-681 -327 -827 -666 l-38 -90 -65 -1 c-36 -1 -492 -2 -1015 -3 l-950 -1 -3
-70 c-2 -38 2 -135 8 -215 52 -684 335 -1208 826 -1531 333 -220 961 -407
1697 -505 l207 -28 1 -36 c0 -19 2 -260 4 -535 1 -275 8 -572 14 -660 37 -498
130 -939 268 -1270 49 -117 106 -235 114 -235 4 0 90 45 191 101 101 56 256
142 346 191 89 49 162 91 162 93 0 1 -18 40 -39 86 -91 196 -169 515 -201 819
-6 58 -13 121 -16 140 -2 19 -8 337 -13 705 -7 546 -12 687 -25 763 -45 258
-150 415 -345 516 -128 66 -244 94 -450 106 -357 23 -681 88 -1033 209 -387
134 -634 296 -770 506 l-39 60 918 5 918 5 1 230 c1 148 6 246 14 275 30 110
98 192 197 237 77 36 169 40 793 38 294 -1 541 0 548 3 9 3 12 192 12 900 l0
896 76 -74 c248 -245 470 -663 584 -1101 90 -347 134 -752 123 -1116 -3 -84
-2 -168 1 -186 l6 -33 163 -19 c194 -21 230 -36 394 -158 128 -96 455 -419
594 -587 389 -470 682 -970 824 -1407 9 -29 18 -53 21 -53 4 0 37 8 464 120
151 40 276 73 277 74 7 6 -122 367 -167 471 -244 560 -626 1123 -1071 1576
-253 257 -409 383 -707 566 -8 5 -18 64 -27 163 -38 390 -125 760 -258 1100
-55 139 -181 393 -252 505 -138 219 -354 469 -535 620 -349 290 -748 450
-1197 480 l-93 7 0 -980z"/>
<path d="M4220 5590 c0 -104 3 -190 6 -190 3 0 177 86 386 190 l379 190 -385
0 -386 0 0 -190z"/>
</g>
</svg>
